<svg width="24" height="24" viewBox="0 0 24 24" fill="none" xmlns="http://www.w3.org/2000/svg">
<path fill-rule="evenodd" clip-rule="evenodd" d="M12 9C10.3431 9 9 10.3431 9 12C9 13.6569 10.3431 15 12 15C13.6569 15 15 13.6569 15 12C15 10.3431 13.6569 9 12 9ZM7 12C7 9.23858 9.23858 7 12 7C14.7614 7 17 9.23858 17 12C17 14.7614 14.7614 17 12 17C9.23858 17 7 14.7614 7 12Z"/>
<path fill-rule="evenodd" clip-rule="evenodd" d="M12 1C12.5523 1 13 1.44772 13 2V4C13 4.55228 12.5523 5 12 5C11.4477 5 11 4.55228 11 4V2C11 1.44772 11.4477 1 12 1Z"/>
<path fill-rule="evenodd" clip-rule="evenodd" d="M12 19C12.5523 19 13 19.4477 13 20V22C13 22.5523 12.5523 23 12 23C11.4477 23 11 22.5523 11 22V20C11 19.4477 11.4477 19 12 19Z"/>
<path fill-rule="evenodd" clip-rule="evenodd" d="M4.29289 4.29289C4.68342 3.90237 5.31658 3.90237 5.70711 4.29289L7.20711 5.79289C7.59763 6.18342 7.59763 6.81658 7.20711 7.20711C6.81658 7.59763 6.18342 7.59763 5.79289 7.20711L4.29289 5.70711C3.90237 5.31658 3.90237 4.68342 4.29289 4.29289Z"/>
<path fill-rule="evenodd" clip-rule="evenodd" d="M16.7929 16.7929C17.1834 16.4024 17.8166 16.4024 18.2071 16.7929L19.7071 18.2929C20.0976 18.6834 20.0976 19.3166 19.7071 19.7071C19.3166 20.0976 18.6834 20.0976 18.2929 19.7071L16.7929 18.2071C16.4024 17.8166 16.4024 17.1834 16.7929 16.7929Z"/>
<path fill-rule="evenodd" clip-rule="evenodd" d="M1 12C1 11.4477 1.44772 11 2 11H4C4.55228 11 5 11.4477 5 12C5 12.5523 4.55228 13 4 13H2C1.44772 13 1 12.5523 1 12Z"/>
<path fill-rule="evenodd" clip-rule="evenodd" d="M19 12C19 11.4477 19.4477 11 20 11H22C22.5523 11 23 11.4477 23 12C23 12.5523 22.5523 13 22 13H20C19.4477 13 19 12.5523 19 12Z"/>
<path fill-rule="evenodd" clip-rule="evenodd" d="M7.20711 16.7929C7.59763 17.1834 7.59763 17.8166 7.20711 18.2071L5.70711 19.7071C5.31658 20.0976 4.68342 20.0976 4.29289 19.7071C3.90237 19.3166 3.90237 18.6834 4.29289 18.2929L5.79289 16.7929C6.18342 16.4024 6.81658 16.4024 7.20711 16.7929Z"/>
<path fill-rule="evenodd" clip-rule="evenodd" d="M19.7071 4.29289C20.0976 4.68342 20.0976 5.31658 19.7071 5.70711L18.2071 7.20711C17.8166 7.59763 17.1834 7.59763 16.7929 7.20711C16.4024 6.81658 16.4024 6.18342 16.7929 5.79289L18.2929 4.29289C18.6834 3.90237 19.3166 3.90237 19.7071 4.29289Z"/>
</svg>
